<?xml version="1.0" encoding="utf-8"?>
<!-- Generator: Adobe Illustrator 16.0.0, SVG Export Plug-In . SVG Version: 6.00 Build 0)  -->
<!DOCTYPE svg PUBLIC "-//W3C//DTD SVG 1.1//EN" "http://www.w3.org/Graphics/SVG/1.1/DTD/svg11.dtd">
<svg version="1.1" id="Capa_1" xmlns="http://www.w3.org/2000/svg" xmlns:xlink="http://www.w3.org/1999/xlink" x="0px" y="0px"
	 width="1027.667px" height="498.802px" viewBox="0 0 1027.667 498.802" enable-background="new 0 0 1027.667 498.802"
	 xml:space="preserve">
<path fill="#9A9A9A" d="M96.51,221.926l0.704,0.255c0.019,0.008,0.027,0.024,0.022,0.037c-0.012,0.013-0.026,0.025-0.039,0.017
	h-0.004L96.51,221.926z"/>
<g>
	<path fill="#59A635" d="M49.925,179.896c-4.46,0-8.641-0.839-12.548-2.521c-3.9-1.679-7.308-3.97-10.206-6.868
		c-2.903-2.898-5.19-6.296-6.868-10.206c-1.681-3.907-2.521-8.087-2.521-12.543c0-4.396,0.839-8.548,2.521-12.454
		c1.678-3.907,3.965-7.292,6.868-10.167c2.898-2.871,6.306-5.142,10.206-6.818c3.907-1.68,8.088-2.524,12.548-2.524
		c2.929,0,5.779,0.386,8.554,1.148c2.782,0.768,5.376,1.867,7.784,3.294c2.408,1.443,4.628,3.194,6.646,5.264
		c2.018,2.077,3.721,4.401,5.128,6.967l0.269,0.45h-6.042l-0.087-0.181c-2.511-4.15-5.714-7.368-9.617-9.657
		c-3.905-2.29-8.117-3.433-12.636-3.433c-3.665,0-7.097,0.735-10.306,2.194c-3.198,1.467-6.006,3.469-8.421,6.003
		c-2.413,2.532-4.302,5.503-5.679,8.926c-1.372,3.418-2.057,7.083-2.057,10.988c0,3.847,0.685,7.492,2.057,10.939
		c1.377,3.447,3.266,6.459,5.679,9.015c2.415,2.567,5.223,4.599,8.421,6.093c3.209,1.495,6.641,2.243,10.306,2.243
		c4.519,0,8.731-1.176,12.636-3.522c3.903-2.356,7.105-5.598,9.617-9.755l0.087-0.271h6.042l-0.269,0.548
		c-1.408,2.623-3.111,4.975-5.128,7.045c-2.018,2.081-4.238,3.852-6.646,5.313c-2.408,1.465-5.002,2.585-7.784,3.342
		C55.704,179.515,52.854,179.896,49.925,179.896"/>
	<path fill="none" stroke="#59A635" stroke-width="0.313" stroke-miterlimit="10" d="M49.925,179.896
		c-4.46,0-8.641-0.839-12.548-2.521c-3.9-1.679-7.308-3.97-10.206-6.868c-2.903-2.898-5.19-6.296-6.868-10.206
		c-1.681-3.907-2.521-8.087-2.521-12.543c0-4.396,0.839-8.548,2.521-12.454c1.678-3.907,3.965-7.292,6.868-10.167
		c2.898-2.871,6.306-5.142,10.206-6.818c3.907-1.68,8.088-2.524,12.548-2.524c2.929,0,5.779,0.386,8.554,1.148
		c2.782,0.768,5.376,1.867,7.784,3.294c2.408,1.443,4.628,3.194,6.646,5.264c2.018,2.077,3.721,4.401,5.128,6.967l0.269,0.45h-6.042
		l-0.087-0.181c-2.511-4.15-5.714-7.368-9.617-9.657c-3.905-2.29-8.117-3.433-12.636-3.433c-3.665,0-7.097,0.735-10.306,2.194
		c-3.198,1.467-6.006,3.469-8.421,6.003c-2.413,2.532-4.302,5.503-5.679,8.926c-1.372,3.418-2.057,7.083-2.057,10.988
		c0,3.847,0.685,7.492,2.057,10.939c1.377,3.447,3.266,6.459,5.679,9.015c2.415,2.567,5.223,4.599,8.421,6.093
		c3.209,1.495,6.641,2.243,10.306,2.243c4.519,0,8.731-1.176,12.636-3.522c3.903-2.356,7.105-5.598,9.617-9.755l0.087-0.271h6.042
		l-0.269,0.548c-1.408,2.623-3.111,4.975-5.128,7.045c-2.018,2.081-4.238,3.852-6.646,5.313c-2.408,1.465-5.002,2.585-7.784,3.342
		C55.704,179.515,52.854,179.896,49.925,179.896z"/>
	<path fill="#59A635" d="M98.639,148.397c-1.59,0.061-3.104,0.428-4.538,1.099c-1.436,0.667-2.703,1.586-3.793,2.748
		c-1.105,1.155-2.004,2.531-2.708,4.12c-0.695,1.585-1.143,3.295-1.325,5.123v1.467v16.575h-4.211v-33.237h4.211v5.584
		c1.457-1.772,3.267-3.143,5.395-4.12c2.15-0.98,4.457-1.464,6.969-1.464V148.397z"/>
	<path fill="none" stroke="#59A635" stroke-width="0.313" stroke-miterlimit="10" d="M98.639,148.397
		c-1.59,0.061-3.104,0.428-4.538,1.099c-1.436,0.667-2.703,1.586-3.793,2.748c-1.105,1.155-2.004,2.531-2.708,4.12
		c-0.695,1.585-1.143,3.295-1.325,5.123v1.467v16.575h-4.211v-33.237h4.211v5.584c1.457-1.772,3.267-3.143,5.395-4.12
		c2.15-0.98,4.457-1.464,6.969-1.464V148.397z"/>
	<path fill="#59A635" d="M116.174,146.38c2.327,0,4.507,0.443,6.564,1.324c2.027,0.884,3.823,2.1,5.341,3.65
		c1.527,1.548,2.744,3.338,3.622,5.376c0.886,2.036,1.33,4.235,1.33,6.607v1.503c0,0.521-0.063,1.016-0.181,1.501h-16.675h-12.445
		c0.3,1.637,0.844,3.154,1.6,4.544c0.767,1.39,1.701,2.605,2.797,3.634c1.099,1.032,2.34,1.826,3.703,2.407
		c1.38,0.576,2.827,0.858,4.346,0.858v2.294c-2.316,0-4.51-0.442-6.585-1.322c-2.077-0.882-3.88-2.086-5.402-3.61
		c-1.527-1.522-2.733-3.285-3.612-5.292c-0.891-2.014-1.334-4.17-1.334-6.483c0-2.376,0.443-4.586,1.334-6.623
		c0.879-2.043,2.085-3.837,3.612-5.391c1.522-1.554,3.325-2.77,5.402-3.654C111.664,146.823,113.858,146.38,116.174,146.38
		 M128.817,161.946c-0.124-1.827-0.552-3.552-1.281-5.174c-0.733-1.613-1.665-3.021-2.8-4.208c-1.121-1.19-2.416-2.138-3.888-2.841
		c-1.462-0.695-3.012-1.055-4.675-1.055c-1.643,0-3.215,0.359-4.704,1.055c-1.504,0.703-2.813,1.651-3.94,2.841
		c-1.13,1.187-2.047,2.594-2.744,4.208c-0.708,1.622-1.144,3.348-1.328,5.174H128.817z"/>
	<path fill="none" stroke="#59A635" stroke-width="0.313" stroke-miterlimit="10" d="M116.174,146.38
		c2.327,0,4.507,0.443,6.564,1.324c2.027,0.884,3.823,2.1,5.341,3.65c1.527,1.548,2.744,3.338,3.622,5.376
		c0.886,2.036,1.33,4.235,1.33,6.607v1.503c0,0.521-0.063,1.016-0.181,1.501h-16.675h-12.445c0.3,1.637,0.844,3.154,1.6,4.544
		c0.767,1.39,1.701,2.605,2.797,3.634c1.099,1.032,2.34,1.826,3.703,2.407c1.38,0.576,2.827,0.858,4.346,0.858v2.294
		c-2.316,0-4.51-0.442-6.585-1.322c-2.077-0.882-3.88-2.086-5.402-3.61c-1.527-1.522-2.733-3.285-3.612-5.292
		c-0.891-2.014-1.334-4.17-1.334-6.483c0-2.376,0.443-4.586,1.334-6.623c0.879-2.043,2.085-3.837,3.612-5.391
		c1.522-1.554,3.325-2.77,5.402-3.654C111.664,146.823,113.858,146.38,116.174,146.38z M128.817,161.946
		c-0.124-1.827-0.552-3.552-1.281-5.174c-0.733-1.613-1.665-3.021-2.8-4.208c-1.121-1.19-2.416-2.138-3.888-2.841
		c-1.462-0.695-3.012-1.055-4.675-1.055c-1.643,0-3.215,0.359-4.704,1.055c-1.504,0.703-2.813,1.651-3.94,2.841
		c-1.13,1.187-2.047,2.594-2.744,4.208c-0.708,1.622-1.144,3.348-1.328,5.174H128.817z"/>
	<path fill="#59A635" d="M135.959,163.274c0-2.257,0.433-4.405,1.286-6.422c0.847-2.022,2.009-3.766,3.47-5.236
		c1.466-1.467,3.193-2.627,5.179-3.485c1.985-0.863,4.138-1.291,6.459-1.291c2.315,0,4.523,0.49,6.636,1.467
		c2.103,0.975,3.951,2.322,5.536,4.025v-5.493h4.028v32.873h-4.028v-5.495c-1.585,1.708-3.433,3.052-5.536,4.033
		c-2.113,0.971-4.321,1.462-6.636,1.462c-2.322,0-4.475-0.431-6.459-1.286c-1.986-0.852-3.713-2.039-5.179-3.537
		c-1.461-1.496-2.624-3.243-3.47-5.233C136.392,167.672,135.959,165.545,135.959,163.274 M139.988,163.319
		c0,1.952,0.328,3.785,0.964,5.496c0.639,1.708,1.521,3.204,2.652,4.488c1.123,1.281,2.439,2.285,3.937,3.018
		c1.49,0.734,3.1,1.099,4.813,1.099c1.58,0,3.08-0.318,4.479-0.96c1.406-0.643,2.652-1.54,3.756-2.699
		c1.095-1.162,1.981-2.519,2.657-4.081c0.667-1.551,1.1-3.245,1.28-5.075v-2.752c-0.181-1.763-0.613-3.43-1.28-4.988
		c-0.676-1.556-1.562-2.897-2.657-4.024c-1.104-1.13-2.35-2.029-3.756-2.707c-1.399-0.669-2.899-1.004-4.479-1.004
		c-1.713,0-3.322,0.381-4.813,1.144c-1.498,0.765-2.814,1.785-3.937,3.071c-1.132,1.281-2.014,2.775-2.652,4.483
		C140.315,159.536,139.988,161.37,139.988,163.319"/>
	<path fill="none" stroke="#59A635" stroke-width="0.313" stroke-miterlimit="10" d="M135.959,163.274
		c0-2.257,0.433-4.405,1.286-6.422c0.847-2.022,2.009-3.766,3.47-5.236c1.466-1.467,3.193-2.627,5.179-3.485
		c1.985-0.863,4.138-1.291,6.459-1.291c2.315,0,4.523,0.49,6.636,1.467c2.103,0.975,3.951,2.322,5.536,4.025v-5.493h4.028v32.873
		h-4.028v-5.495c-1.585,1.708-3.433,3.052-5.536,4.033c-2.113,0.971-4.321,1.462-6.636,1.462c-2.322,0-4.475-0.431-6.459-1.286
		c-1.986-0.852-3.713-2.039-5.179-3.537c-1.461-1.496-2.624-3.243-3.47-5.233C136.392,167.672,135.959,165.545,135.959,163.274z
		 M139.988,163.319c0,1.952,0.328,3.785,0.964,5.496c0.639,1.708,1.521,3.204,2.652,4.488c1.123,1.281,2.439,2.285,3.937,3.018
		c1.49,0.734,3.1,1.099,4.813,1.099c1.58,0,3.08-0.318,4.479-0.96c1.406-0.643,2.652-1.54,3.756-2.699
		c1.095-1.162,1.981-2.519,2.657-4.081c0.667-1.551,1.1-3.245,1.28-5.075v-2.752c-0.181-1.763-0.613-3.43-1.28-4.988
		c-0.676-1.556-1.562-2.897-2.657-4.024c-1.104-1.13-2.35-2.029-3.756-2.707c-1.399-0.669-2.899-1.004-4.479-1.004
		c-1.713,0-3.322,0.381-4.813,1.144c-1.498,0.765-2.814,1.785-3.937,3.071c-1.132,1.281-2.014,2.775-2.652,4.483
		C140.315,159.536,139.988,161.37,139.988,163.319z"/>
	<path fill="#59A635" d="M202.703,171.286c-1.394,2.503-3.402,4.551-5.988,6.137c-2.597,1.585-5.45,2.38-8.57,2.38
		c-2.316,0-4.483-0.423-6.496-1.286c-2.01-0.85-3.794-2.052-5.328-3.579c-1.537-1.527-2.743-3.325-3.613-5.374
		c-0.876-2.048-1.319-4.233-1.319-6.56c0-2.266,0.443-4.423,1.319-6.476c0.87-2.049,2.077-3.826,3.613-5.325
		c1.534-1.5,3.318-2.694,5.328-3.58c2.012-0.886,4.179-1.33,6.496-1.33c3.121,0,5.973,0.79,8.57,2.375
		c2.585,1.59,4.594,3.661,5.988,6.232h-4.116c-1.22-1.957-2.733-3.498-4.528-4.628c-1.799-1.127-3.779-1.699-5.914-1.699
		c-1.708,0-3.325,0.385-4.846,1.149c-1.522,0.76-2.854,1.794-3.984,3.102c-1.132,1.308-2.031,2.829-2.703,4.561
		c-0.667,1.738-1.009,3.607-1.009,5.618c0,2.003,0.342,3.894,1.009,5.655c0.672,1.765,1.571,3.303,2.703,4.612
		c1.13,1.309,2.462,2.343,3.984,3.104c1.521,0.762,3.139,1.144,4.846,1.144c2.135,0,4.115-0.571,5.914-1.7
		c1.794-1.126,3.308-2.638,4.528-4.533H202.703z"/>
	<path fill="none" stroke="#59A635" stroke-width="0.313" stroke-miterlimit="10" d="M202.703,171.286
		c-1.394,2.503-3.402,4.551-5.988,6.137c-2.597,1.585-5.45,2.38-8.57,2.38c-2.316,0-4.483-0.423-6.496-1.286
		c-2.01-0.85-3.794-2.052-5.328-3.579c-1.537-1.527-2.743-3.325-3.613-5.374c-0.876-2.048-1.319-4.233-1.319-6.56
		c0-2.266,0.443-4.423,1.319-6.476c0.87-2.049,2.077-3.826,3.613-5.325c1.534-1.5,3.318-2.694,5.328-3.58
		c2.012-0.886,4.179-1.33,6.496-1.33c3.121,0,5.973,0.79,8.57,2.375c2.585,1.59,4.594,3.661,5.988,6.232h-4.116
		c-1.22-1.957-2.733-3.498-4.528-4.628c-1.799-1.127-3.779-1.699-5.914-1.699c-1.708,0-3.325,0.385-4.846,1.149
		c-1.522,0.76-2.854,1.794-3.984,3.102c-1.132,1.308-2.031,2.829-2.703,4.561c-0.667,1.738-1.009,3.607-1.009,5.618
		c0,2.003,0.342,3.894,1.009,5.655c0.672,1.765,1.571,3.303,2.703,4.612c1.13,1.309,2.462,2.343,3.984,3.104
		c1.521,0.762,3.139,1.144,4.846,1.144c2.135,0,4.115-0.571,5.914-1.7c1.794-1.126,3.308-2.638,4.528-4.533H202.703z"/>
	<rect x="207.287" y="146.101" fill="#59A635" width="4.212" height="33.61"/>
	
		<rect x="207.287" y="146.101" fill="none" stroke="#59A635" stroke-width="0.313" stroke-miterlimit="10" width="4.212" height="33.61"/>
	<path fill="#59A635" d="M249.863,162.953c0,2.385-0.441,4.6-1.327,6.641c-0.881,2.053-2.109,3.842-3.662,5.404
		c-1.562,1.55-3.361,2.775-5.404,3.659c-2.05,0.885-4.266,1.33-6.642,1.33c-2.317,0-4.501-0.445-6.546-1.33
		c-2.041-0.883-3.835-2.108-5.364-3.659c-1.519-1.562-2.727-3.351-3.604-5.404c-0.885-2.041-1.332-4.256-1.332-6.641
		c0-2.38,0.447-4.588,1.332-6.635c0.876-2.046,2.085-3.843,3.604-5.402c1.529-1.558,3.323-2.775,5.364-3.666
		c2.044-0.881,4.229-1.325,6.546-1.325c2.376,0,4.591,0.443,6.642,1.325c2.043,0.891,3.842,2.108,5.404,3.666
		c1.553,1.559,2.78,3.356,3.662,5.402C249.422,158.365,249.863,160.573,249.863,162.953 M232.83,148.216
		c-1.774,0-3.416,0.399-4.938,1.19c-1.525,0.795-2.876,1.851-4.028,3.174c-1.162,1.31-2.066,2.877-2.699,4.685
		c-0.644,1.804-0.967,3.716-0.967,5.737c0,2.021,0.323,3.921,0.967,5.697c0.632,1.776,1.537,3.333,2.699,4.684
		c1.152,1.349,2.503,2.402,4.028,3.166c1.522,0.768,3.165,1.148,4.938,1.148c1.772,0,3.434-0.381,4.991-1.148
		c1.562-0.764,2.916-1.817,4.069-3.166c1.168-1.35,2.077-2.908,2.752-4.684c0.675-1.776,1.005-3.675,1.005-5.697
		c0-2.021-0.331-3.933-1.005-5.737c-0.675-1.808-1.584-3.375-2.752-4.685c-1.153-1.324-2.507-2.379-4.069-3.174
		C236.263,148.615,234.602,148.216,232.83,148.216"/>
	<path fill="none" stroke="#59A635" stroke-width="0.313" stroke-miterlimit="10" d="M249.863,162.953
		c0,2.385-0.441,4.6-1.327,6.641c-0.881,2.053-2.109,3.842-3.662,5.404c-1.562,1.55-3.361,2.775-5.404,3.659
		c-2.05,0.885-4.266,1.33-6.642,1.33c-2.317,0-4.501-0.445-6.546-1.33c-2.041-0.883-3.835-2.108-5.364-3.659
		c-1.519-1.562-2.727-3.351-3.604-5.404c-0.885-2.041-1.332-4.256-1.332-6.641c0-2.38,0.447-4.588,1.332-6.635
		c0.876-2.046,2.085-3.843,3.604-5.402c1.529-1.558,3.323-2.775,5.364-3.666c2.044-0.881,4.229-1.325,6.546-1.325
		c2.376,0,4.591,0.443,6.642,1.325c2.043,0.891,3.842,2.108,5.404,3.666c1.553,1.559,2.78,3.356,3.662,5.402
		C249.422,158.365,249.863,160.573,249.863,162.953z M232.83,148.216c-1.774,0-3.416,0.399-4.938,1.19
		c-1.525,0.795-2.876,1.851-4.028,3.174c-1.162,1.31-2.066,2.877-2.699,4.685c-0.644,1.804-0.967,3.716-0.967,5.737
		c0,2.021,0.323,3.921,0.967,5.697c0.632,1.776,1.537,3.333,2.699,4.684c1.152,1.349,2.503,2.402,4.028,3.166
		c1.522,0.768,3.165,1.148,4.938,1.148c1.772,0,3.434-0.381,4.991-1.148c1.562-0.764,2.916-1.817,4.069-3.166
		c1.168-1.35,2.077-2.908,2.752-4.684c0.675-1.776,1.005-3.675,1.005-5.697c0-2.021-0.331-3.933-1.005-5.737
		c-0.675-1.808-1.584-3.375-2.752-4.685c-1.153-1.324-2.507-2.379-4.069-3.174C236.263,148.615,234.602,148.216,232.83,148.216z"/>
	<path fill="#59A635" d="M269.87,146.382c2.262,0,4.42,0.436,6.473,1.322c2.047,0.886,3.824,2.085,5.323,3.608
		c1.499,1.524,2.694,3.306,3.579,5.342c0.89,2.038,1.327,4.224,1.327,6.532v16.71h-4.206v-16.757c0-2.015-0.32-3.91-0.962-5.676
		c-0.647-1.776-1.537-3.299-2.662-4.583c-1.137-1.277-2.476-2.298-4.002-3.066c-1.536-0.755-3.19-1.141-4.96-1.141
		c-1.6,0-3.129,0.337-4.59,1.008c-1.476,0.671-2.786,1.566-3.923,2.699c-1.127,1.127-2.047,2.489-2.747,4.075
		c-0.709,1.585-1.123,3.298-1.237,5.127v1.558v16.757h-4.213v-33.513h4.213l0.1,5.678c1.528-1.771,3.367-3.161,5.502-4.165
		C265.033,146.886,267.359,146.382,269.87,146.382"/>
	<path fill="none" stroke="#59A635" stroke-width="0.313" stroke-miterlimit="10" d="M269.87,146.382
		c2.262,0,4.42,0.436,6.473,1.322c2.047,0.886,3.824,2.085,5.323,3.608c1.499,1.524,2.694,3.306,3.579,5.342
		c0.89,2.038,1.327,4.224,1.327,6.532v16.71h-4.206v-16.757c0-2.015-0.32-3.91-0.962-5.676c-0.647-1.776-1.537-3.299-2.662-4.583
		c-1.137-1.277-2.476-2.298-4.002-3.066c-1.536-0.755-3.19-1.141-4.96-1.141c-1.6,0-3.129,0.337-4.59,1.008
		c-1.476,0.671-2.786,1.566-3.923,2.699c-1.127,1.127-2.047,2.489-2.747,4.075c-0.709,1.585-1.123,3.298-1.237,5.127v1.558v16.757
		h-4.213v-33.513h4.213l0.1,5.678c1.528-1.771,3.367-3.161,5.502-4.165C265.033,146.886,267.359,146.382,269.87,146.382z"/>
	<path fill="#59A635" d="M305.81,146.38c2.318,0,4.493,0.443,6.551,1.324c2.03,0.884,3.826,2.1,5.351,3.65
		c1.523,1.548,2.727,3.338,3.612,5.376c0.892,2.036,1.338,4.235,1.338,6.607v1.503c0,0.521-0.071,1.016-0.184,1.501H305.81h-12.459
		c0.311,1.637,0.841,3.154,1.604,4.544c0.762,1.39,1.699,2.605,2.793,3.634c1.1,1.032,2.334,1.826,3.715,2.407
		c1.371,0.576,2.817,0.858,4.346,0.858v2.294c-2.324,0-4.522-0.442-6.595-1.322c-2.075-0.882-3.87-2.086-5.401-3.61
		c-1.525-1.522-2.733-3.285-3.614-5.292c-0.891-2.014-1.323-4.17-1.323-6.483c0-2.376,0.433-4.586,1.323-6.623
		c0.881-2.043,2.089-3.837,3.614-5.391c1.532-1.554,3.326-2.77,5.401-3.654C301.287,146.823,303.486,146.38,305.81,146.38
		 M318.443,161.946c-0.119-1.827-0.549-3.552-1.285-5.174c-0.733-1.613-1.662-3.021-2.791-4.208
		c-1.129-1.19-2.423-2.138-3.893-2.841c-1.457-0.695-3.024-1.055-4.665-1.055c-1.651,0-3.219,0.359-4.718,1.055
		c-1.496,0.703-2.808,1.651-3.933,2.841c-1.131,1.187-2.045,2.594-2.75,4.208c-0.707,1.622-1.144,3.348-1.325,5.174H318.443z"/>
	<path fill="none" stroke="#59A635" stroke-width="0.313" stroke-miterlimit="10" d="M305.81,146.38
		c2.318,0,4.493,0.443,6.551,1.324c2.03,0.884,3.826,2.1,5.351,3.65c1.523,1.548,2.727,3.338,3.612,5.376
		c0.892,2.036,1.338,4.235,1.338,6.607v1.503c0,0.521-0.071,1.016-0.184,1.501H305.81h-12.459c0.311,1.637,0.841,3.154,1.604,4.544
		c0.762,1.39,1.699,2.605,2.793,3.634c1.1,1.032,2.334,1.826,3.715,2.407c1.371,0.576,2.817,0.858,4.346,0.858v2.294
		c-2.324,0-4.522-0.442-6.595-1.322c-2.075-0.882-3.87-2.086-5.401-3.61c-1.525-1.522-2.733-3.285-3.614-5.292
		c-0.891-2.014-1.323-4.17-1.323-6.483c0-2.376,0.433-4.586,1.323-6.623c0.881-2.043,2.089-3.837,3.614-5.391
		c1.532-1.554,3.326-2.77,5.401-3.654C301.287,146.823,303.486,146.38,305.81,146.38z M318.443,161.946
		c-0.119-1.827-0.549-3.552-1.285-5.174c-0.733-1.613-1.662-3.021-2.791-4.208c-1.129-1.19-2.423-2.138-3.893-2.841
		c-1.457-0.695-3.024-1.055-4.665-1.055c-1.651,0-3.219,0.359-4.718,1.055c-1.496,0.703-2.808,1.651-3.933,2.841
		c-1.131,1.187-2.045,2.594-2.75,4.208c-0.707,1.622-1.144,3.348-1.325,5.174H318.443z"/>
	<path fill="#59A635" d="M340.928,179.712c-2.148,0-4.179-0.245-6.113-0.735c-1.932-0.49-3.607-1.177-5.056-2.055
		c-1.436-0.885-2.561-1.911-3.393-3.07c-0.823-1.162-1.244-2.411-1.244-3.757l4.214-0.18v0.18c0,2.136,1.071,3.866,3.203,5.174
		c2.139,1.313,4.919,1.972,8.335,1.972c3.479,0,6.294-0.659,8.426-1.972c2.134-1.309,3.21-3.039,3.21-5.174
		c0-2.071-1.076-3.733-3.21-4.99c-2.132-1.246-4.947-1.874-8.426-1.874v-0.091c-2.013,0-3.903-0.216-5.674-0.643
		c-1.776-0.428-3.317-1.023-4.628-1.786c-1.308-0.767-2.35-1.645-3.112-2.657c-0.758-1.009-1.142-2.09-1.142-3.25
		c0-1.158,0.384-2.244,1.17-3.251c0.775-1,1.829-1.89,3.156-2.653c1.33-0.762,2.875-1.376,4.647-1.832
		c1.771-0.458,3.661-0.686,5.674-0.686c2.02,0,3.922,0.227,5.727,0.686c1.799,0.455,3.371,1.07,4.712,1.832
		c1.339,0.763,2.411,1.653,3.209,2.653c0.796,1.008,1.186,2.093,1.186,3.251h-4.124c0-1.83-0.95-3.275-2.88-4.352
		c-1.927-1.063-4.525-1.598-7.831-1.598c-3.24,0-5.778,0.536-7.64,1.598c-1.868,1.077-2.794,2.522-2.794,4.352
		c0,1.828,0.927,3.271,2.794,4.302c1.862,1.042,4.4,1.558,7.64,1.558c2.199,0,4.261,0.247,6.181,0.732
		c1.927,0.491,3.588,1.175,4.997,2.062c1.4,0.885,2.513,1.889,3.338,3.017c0.823,1.135,1.236,2.338,1.236,3.619
		c0,1.346-0.413,2.595-1.241,3.757c-0.829,1.16-1.947,2.185-3.351,3.07c-1.405,0.878-3.076,1.565-5.005,2.055
		C345.188,179.468,343.126,179.712,340.928,179.712"/>
	<path fill="none" stroke="#59A635" stroke-width="0.313" stroke-miterlimit="10" d="M340.928,179.712
		c-2.148,0-4.179-0.245-6.113-0.735c-1.932-0.49-3.607-1.177-5.056-2.055c-1.436-0.885-2.561-1.911-3.393-3.07
		c-0.823-1.162-1.244-2.411-1.244-3.757l4.214-0.18v0.18c0,2.136,1.071,3.866,3.203,5.174c2.139,1.313,4.919,1.972,8.335,1.972
		c3.479,0,6.294-0.659,8.426-1.972c2.134-1.309,3.21-3.039,3.21-5.174c0-2.071-1.076-3.733-3.21-4.99
		c-2.132-1.246-4.947-1.874-8.426-1.874v-0.091c-2.013,0-3.903-0.216-5.674-0.643c-1.776-0.428-3.317-1.023-4.628-1.786
		c-1.308-0.767-2.35-1.645-3.112-2.657c-0.758-1.009-1.142-2.09-1.142-3.25c0-1.158,0.384-2.244,1.17-3.251
		c0.775-1,1.829-1.89,3.156-2.653c1.33-0.762,2.875-1.376,4.647-1.832c1.771-0.458,3.661-0.686,5.674-0.686
		c2.02,0,3.922,0.227,5.727,0.686c1.799,0.455,3.371,1.07,4.712,1.832c1.339,0.763,2.411,1.653,3.209,2.653
		c0.796,1.008,1.186,2.093,1.186,3.251h-4.124c0-1.83-0.95-3.275-2.88-4.352c-1.927-1.063-4.525-1.598-7.831-1.598
		c-3.24,0-5.778,0.536-7.64,1.598c-1.868,1.077-2.794,2.522-2.794,4.352c0,1.828,0.927,3.271,2.794,4.302
		c1.862,1.042,4.4,1.558,7.64,1.558c2.199,0,4.261,0.247,6.181,0.732c1.927,0.491,3.588,1.175,4.997,2.062
		c1.4,0.885,2.513,1.889,3.338,3.017c0.823,1.135,1.236,2.338,1.236,3.619c0,1.346-0.413,2.595-1.241,3.757
		c-0.829,1.16-1.947,2.185-3.351,3.07c-1.405,0.878-3.076,1.565-5.005,2.055C345.188,179.468,343.126,179.712,340.928,179.712z"/>
	<path fill="#E284AD" d="M234.797,127.628c0,0,71.301-49.541,9.658-114.06c0,0,40.67-17.956,63.396,26.646
		c0,0,20.346,39.101-27.75,69.603C280.102,109.817,258.721,123.358,234.797,127.628"/>
	<path fill="#E284AD" d="M188.106,73.221c0,0,31.352,55.426,72.662,10.011C260.768,83.232,199.167,196.958,188.106,73.221"/>
	<path fill="#E284AD" d="M187.732,105.467c0,0-19.407-70.226,8.874-80.546c0,0,14.354-9.32,52.103,6.945
		c0,0-27.049-46.052-67.336-26.068C181.372,5.798,136.791,26.83,187.732,105.467"/>
	<path fill="#E284AD" d="M206.778,83.399c0,0-19.498-40.229,13.376-40.363c0,0-17.547-16.451-26.9-4.45
		C193.254,38.586,178.434,59.937,206.778,83.399"/>
	<path fill="#E284AD" d="M209.283,70.866c0,0,19.537,19.592,28.826-6.989c0,0,3.633,5.313-5.637,23.356
		C232.472,87.233,224.213,105.825,209.283,70.866"/>
	<path fill="#E284AD" d="M209.355,28.908c0,0,54.806,17.217,28.901,62.108c0,0,34.559-19.646,19.854-40.794
		C258.11,50.223,241.653,26.247,209.355,28.908"/>
	<path fill="#E284AD" d="M217.945,67.398c0,0,1.734-13.033,16.801-11.081C234.746,56.317,213.384,39.394,217.945,67.398"/>
	<path fill="#9A9A9A" d="M1026.629,472.166l-0.813-0.233c-0.02-0.011-0.032-0.029-0.02-0.036c0.008-0.021,0.02-0.028,0.039-0.021
		c0.004-0.008,0.004-0.008,0.004,0L1026.629,472.166z"/>
	<path fill="#9A9A9A" d="M1010.981,468.679l-1.659-0.298c-0.366-0.066-0.614-0.411-0.549-0.773c0.063-0.369,0.414-0.611,0.78-0.548
		c0.019,0,0.037,0,0.047,0.008l1.637,0.421c0.322,0.084,0.525,0.409,0.437,0.741C1011.6,468.538,1011.297,468.732,1010.981,468.679"
		/>
	<path fill="#9A9A9A" d="M994.334,466.028l-1.669-0.214c-0.628-0.085-1.076-0.662-0.995-1.294c0.08-0.622,0.659-1.067,1.288-0.984
		c0.025,0,0.051,0,0.068,0.011l1.656,0.314c0.6,0.112,0.989,0.682,0.877,1.283C995.45,465.722,994.908,466.103,994.334,466.028"/>
	<path fill="#9A9A9A" d="M977.593,464.206l-1.678-0.147c-0.902-0.075-1.563-0.857-1.488-1.758c0.079-0.893,0.87-1.563,1.763-1.487
		c0.026,0,0.064,0.008,0.088,0.008l1.673,0.242c0.865,0.12,1.469,0.93,1.342,1.784C979.174,463.684,978.417,464.271,977.593,464.206
		"/>
	<path fill="#9A9A9A" d="M960.801,463.062l-1.688-0.084c-1.16-0.056-2.055-1.042-2.003-2.205c0.056-1.159,1.04-2.054,2.203-1.996
		c0.037,0,0.079,0,0.123,0.009l1.672,0.176c1.135,0.122,1.954,1.127,1.832,2.259C962.832,462.31,961.882,463.109,960.801,463.062"/>
	<path fill="#9A9A9A" d="M943.991,462.375l-1.688-0.048c-1.329-0.036-2.379-1.134-2.354-2.471c0.038-1.331,1.139-2.383,2.476-2.345
		c0.022,0,0.056,0,0.075,0l1.688,0.102c1.313,0.075,2.313,1.211,2.232,2.521C946.352,461.408,945.266,462.402,943.991,462.375"/>
	<path fill="#9A9A9A" d="M927.173,462.197l-1.689,0.01c-1.492,0.008-2.711-1.191-2.715-2.688c-0.012-1.488,1.189-2.706,2.686-2.714
		c0.025-0.011,0.063-0.011,0.094,0l1.684,0.043c1.479,0.04,2.643,1.269,2.598,2.756
		C929.784,461.035,928.608,462.189,927.173,462.197"/>
	<path fill="#9A9A9A" d="M910.356,462.523l-1.683,0.055c-1.654,0.058-3.04-1.235-3.097-2.872c-0.056-1.664,1.233-3.051,2.883-3.105
		c0.026-0.012,0.075,0,0.106,0l1.683-0.012c1.643,0,2.965,1.333,2.973,2.978C913.214,461.165,911.947,462.456,910.356,462.523"/>
	<path fill="#9A9A9A" d="M893.564,463.322l-1.688,0.103c-1.81,0.111-3.365-1.273-3.479-3.077c-0.114-1.812,1.263-3.375,3.075-3.486
		c0.032,0,0.078,0,0.113,0l1.687-0.048c1.799-0.045,3.301,1.367,3.348,3.162C896.664,461.741,895.304,463.201,893.564,463.322"/>
	<path fill="#9A9A9A" d="M876.797,464.549l-1.683,0.149c-1.968,0.166-3.707-1.283-3.879-3.256c-0.172-1.971,1.286-3.7,3.255-3.867
		c0.033-0.02,0.085-0.02,0.125-0.02l1.683-0.083c1.958-0.113,3.627,1.396,3.731,3.358
		C880.128,462.747,878.688,464.381,876.797,464.549"/>
	<path fill="#9A9A9A" d="M860.051,466.093l-1.672,0.167c-2.062,0.215-3.902-1.282-4.111-3.338c-0.209-2.064,1.284-3.886,3.342-4.111
		c0.016,0,0.049,0,0.062,0l1.678-0.146c2.056-0.177,3.863,1.347,4.035,3.394C863.557,464.084,862.063,465.878,860.051,466.093"/>
	<path fill="#9A9A9A" d="M843.349,467.98l-1.674,0.214c-2.136,0.27-4.084-1.236-4.352-3.376c-0.271-2.137,1.246-4.081,3.378-4.341
		c0.015-0.009,0.054-0.018,0.066-0.018l1.683-0.178c2.125-0.231,4.04,1.311,4.268,3.431
		C846.946,465.833,845.443,467.719,843.349,467.98"/>
	<path fill="#9A9A9A" d="M826.686,470.25l-1.665,0.24c-2.207,0.346-4.266-1.188-4.592-3.394c-0.33-2.213,1.2-4.267,3.402-4.592
		c0.02,0,0.056-0.009,0.068-0.009l1.684-0.213c2.206-0.301,4.228,1.264,4.508,3.467C830.379,467.933,828.857,469.932,826.686,470.25
		"/>
	<path fill="#9A9A9A" d="M810.066,472.815l-1.663,0.28c-2.246,0.361-4.371-1.154-4.739-3.413c-0.37-2.25,1.159-4.368,3.404-4.741
		h0.027l1.675-0.263c2.245-0.352,4.354,1.183,4.709,3.433C813.827,470.351,812.308,472.451,810.066,472.815"/>
	<path fill="#9A9A9A" d="M793.499,475.679l-1.661,0.298c-2.267,0.428-4.442-1.071-4.856-3.349c-0.42-2.267,1.077-4.443,3.352-4.861
		h0.021l1.658-0.309c2.272-0.398,4.438,1.117,4.842,3.387C797.253,473.102,795.753,475.269,793.499,475.679"/>
	<path fill="#9A9A9A" d="M776.985,478.859l-1.661,0.345c-2.281,0.464-4.512-1.014-4.978-3.302c-0.466-2.286,1.01-4.519,3.295-4.993
		h0.029l1.649-0.325c2.293-0.455,4.51,1.032,4.961,3.319C780.735,476.191,779.26,478.404,776.985,478.859"/>
	<path fill="#9A9A9A" d="M760.534,482.354l-1.651,0.361c-2.311,0.523-4.59-0.937-5.103-3.244c-0.519-2.305,0.937-4.593,3.241-5.104
		l0.029-0.01l1.649-0.353c2.303-0.492,4.579,0.968,5.075,3.281C764.275,479.576,762.825,481.845,760.534,482.354"/>
	<path fill="#9A9A9A" d="M744.104,486.066l-1.649,0.38c-2.275,0.53-4.553-0.894-5.072-3.17c-0.531-2.271,0.872-4.528,3.132-5.078
		l1.654-0.392c2.274-0.538,4.562,0.876,5.1,3.146c0.54,2.277-0.863,4.564-3.135,5.104L744.104,486.066z"/>
	<path fill="#9A9A9A" d="M727.479,489.709l-1.659,0.335c-2.264,0.463-4.473-1.005-4.929-3.264c-0.464-2.25,0.99-4.445,3.236-4.918
		l1.654-0.354c2.27-0.476,4.485,0.976,4.957,3.245c0.479,2.261-0.972,4.473-3.231,4.956H727.479z"/>
	<path fill="#9A9A9A" d="M710.744,492.879l-1.673,0.287c-2.246,0.383-4.385-1.124-4.771-3.373c-0.386-2.241,1.116-4.361,3.347-4.761
		l1.676-0.307c2.244-0.4,4.393,1.105,4.793,3.346c0.398,2.262-1.098,4.407-3.348,4.808H710.744z"/>
	<path fill="#9A9A9A" d="M693.892,495.485l-1.678,0.222c-2.224,0.278-4.245-1.273-4.539-3.505c-0.281-2.195,1.251-4.202,3.43-4.52
		l1.671-0.251c2.218-0.334,4.288,1.209,4.612,3.432c0.331,2.222-1.205,4.285-3.427,4.611
		C693.944,495.474,693.91,495.485,693.892,495.485"/>
	<path fill="#9A9A9A" d="M676.928,497.369l-1.683,0.15c-2.138,0.195-4.034-1.396-4.226-3.541c-0.187-2.111,1.362-3.99,3.477-4.224
		l1.675-0.176c2.148-0.222,4.082,1.329,4.306,3.487c0.231,2.14-1.326,4.07-3.479,4.296
		C676.982,497.362,676.946,497.369,676.928,497.369"/>
	<path fill="#9A9A9A" d="M659.885,498.524l-1.696,0.064c-2.059,0.084-3.808-1.525-3.887-3.59c-0.082-2.047,1.487-3.765,3.521-3.885
		l1.691-0.104c2.068-0.121,3.85,1.45,3.976,3.525c0.125,2.071-1.46,3.858-3.538,3.979
		C659.934,498.514,659.903,498.524,659.885,498.524"/>
	<path fill="#9A9A9A" d="M642.781,498.802l-1.701-0.037c-1.971-0.048-3.543-1.692-3.49-3.673c0.047-1.926,1.623-3.467,3.531-3.494
		l1.703-0.018c1.994-0.022,3.627,1.578,3.649,3.578c0.02,1.978-1.574,3.614-3.571,3.644
		C642.867,498.802,642.814,498.802,642.781,498.802"/>
	<path fill="#9A9A9A" d="M625.665,497.91l-1.686-0.148c-1.811-0.167-3.141-1.758-2.977-3.57c0.158-1.759,1.688-3.077,3.444-2.985
		l1.696,0.084c1.828,0.111,3.227,1.674,3.126,3.496c-0.101,1.83-1.66,3.228-3.487,3.135
		C625.75,497.92,625.698,497.91,625.665,497.91"/>
	<path fill="#9A9A9A" d="M608.646,495.81l-1.676-0.289c-1.626-0.271-2.722-1.814-2.446-3.45c0.265-1.582,1.752-2.658,3.339-2.454
		l1.68,0.223c1.656,0.213,2.818,1.741,2.593,3.383c-0.217,1.656-1.731,2.818-3.386,2.596
		C608.716,495.818,608.674,495.81,608.646,495.81"/>
	<path fill="#9A9A9A" d="M591.847,492.293l-1.638-0.437c-1.44-0.381-2.303-1.861-1.919-3.292c0.37-1.412,1.788-2.26,3.195-1.953
		l1.651,0.382c1.469,0.335,2.39,1.794,2.061,3.264c-0.335,1.459-1.794,2.382-3.264,2.057
		C591.909,492.303,591.872,492.293,591.847,492.293"/>
	<path fill="#9A9A9A" d="M575.462,487.153l-1.586-0.605c-1.24-0.464-1.863-1.859-1.393-3.097c0.458-1.199,1.804-1.83,3.016-1.411
		l1.604,0.538c1.269,0.438,1.946,1.813,1.52,3.086c-0.438,1.275-1.817,1.945-3.087,1.507
		C575.519,487.162,575.481,487.162,575.462,487.153"/>
	<path fill="#9A9A9A" d="M559.739,480.261l-1.491-0.79c-1.015-0.539-1.4-1.793-0.871-2.815c0.522-0.977,1.716-1.368,2.711-0.913
		l1.541,0.698c1.063,0.494,1.538,1.767,1.043,2.827c-0.488,1.069-1.751,1.533-2.814,1.052
		C559.819,480.29,559.771,480.281,559.739,480.261"/>
	<path fill="#9A9A9A" d="M545.048,471.494l-1.398-0.968c-0.729-0.491-0.92-1.477-0.423-2.211c0.484-0.695,1.432-0.891,2.143-0.467
		l1.455,0.876c0.776,0.465,1.032,1.488,0.558,2.26c-0.471,0.781-1.479,1.022-2.259,0.557
		C545.1,471.533,545.074,471.513,545.048,471.494"/>
	<path fill="#9A9A9A" d="M531.404,461.287l-1.3-1.067c-0.479-0.394-0.548-1.1-0.158-1.573c0.375-0.447,1.046-0.529,1.52-0.187
		l1.369,0.995c0.515,0.383,0.63,1.105,0.249,1.629c-0.375,0.52-1.106,0.621-1.623,0.248
		C531.447,461.324,531.419,461.304,531.404,461.287"/>
	<path fill="#9A9A9A" d="M518.527,450.296l-1.272-1.125c-0.258-0.223-0.28-0.605-0.054-0.865c0.212-0.241,0.579-0.27,0.829-0.083
		l1.359,1.021c0.296,0.225,0.358,0.651,0.125,0.958c-0.225,0.288-0.646,0.344-0.945,0.123
		C518.556,450.314,518.542,450.306,518.527,450.296"/>
	<path fill="#9A9A9A" d="M505.325,439.724l-0.717-0.464l0.749,0.409c0.014,0.009,0.023,0.026,0.014,0.047
		c-0.009,0.008-0.027,0.018-0.042,0.008H505.325z"/>
	<path fill="#9A9A9A" d="M1.563,203.059l0.8,0.29c0.021,0.009,0.03,0.028,0.025,0.043c-0.014,0.013-0.03,0.027-0.044,0.018H2.339
		L1.563,203.059z"/>
	<path fill="#9A9A9A" d="M16.932,207.649l1.635,0.409c0.36,0.091,0.576,0.458,0.485,0.82c-0.085,0.356-0.452,0.574-0.813,0.484
		c-0.021,0-0.035-0.006-0.049-0.014l-1.599-0.533c-0.328-0.105-0.491-0.453-0.39-0.771C16.31,207.74,16.623,207.568,16.932,207.649"
		/>
	<path fill="#9A9A9A" d="M33.345,211.464l1.653,0.333c0.627,0.129,1.027,0.734,0.904,1.357c-0.138,0.619-0.742,1.023-1.367,0.895
		c-0.014,0-0.038-0.01-0.06-0.014l-1.629-0.431c-0.584-0.15-0.937-0.755-0.786-1.341C32.204,211.696,32.776,211.35,33.345,211.464"
		/>
	<path fill="#9A9A9A" d="M49.914,214.472l1.672,0.26c0.89,0.144,1.5,0.977,1.352,1.862c-0.138,0.891-0.971,1.495-1.861,1.357
		c-0.023-0.009-0.059-0.013-0.091-0.02l-1.649-0.352c-0.854-0.187-1.39-1.027-1.211-1.88
		C48.31,214.88,49.096,214.341,49.914,214.472"/>
	<path fill="#9A9A9A" d="M66.585,216.798l1.681,0.194c1.157,0.142,1.979,1.191,1.843,2.341c-0.135,1.158-1.19,1.98-2.339,1.844
		c-0.048-0.005-0.085-0.011-0.123-0.019l-1.652-0.29c-1.123-0.201-1.872-1.267-1.676-2.386
		C64.513,217.402,65.518,216.671,66.585,216.798"/>
	<path fill="#9A9A9A" d="M83.306,218.673l1.681,0.162c1.326,0.129,2.294,1.304,2.167,2.628c-0.132,1.328-1.303,2.295-2.626,2.172
		c-0.023,0-0.063-0.004-0.086-0.01l-1.676-0.22c-1.299-0.17-2.212-1.364-2.044-2.671C80.887,219.463,82.036,218.553,83.306,218.673"
		/>
	<path fill="#9A9A9A" d="M100.068,220.039l1.685,0.11c1.491,0.095,2.618,1.379,2.523,2.87c-0.096,1.49-1.379,2.62-2.864,2.523
		c-0.034-0.004-0.071-0.009-0.094-0.009l-1.686-0.167c-1.466-0.149-2.543-1.458-2.396-2.924
		C97.378,221.005,98.646,219.947,100.068,220.039"/>
	<path fill="#9A9A9A" d="M116.867,220.901l1.685,0.061c1.65,0.057,2.945,1.443,2.88,3.093c-0.058,1.657-1.444,2.948-3.097,2.888
		c-0.032,0-0.07,0-0.1,0l-1.685-0.127c-1.631-0.112-2.864-1.531-2.745-3.164C113.915,222.056,115.282,220.848,116.867,220.901"/>
	<path fill="#9A9A9A" d="M133.679,221.294l1.685,0.013c1.814,0.021,3.267,1.5,3.252,3.319c-0.013,1.809-1.499,3.266-3.314,3.252
		c-0.031,0-0.074,0-0.114,0l-1.685-0.077c-1.794-0.082-3.189-1.6-3.107-3.395C130.471,222.651,131.927,221.28,133.679,221.294"/>
	<path fill="#9A9A9A" d="M150.49,221.246l1.69-0.027c1.976-0.033,3.598,1.541,3.631,3.518c0.03,1.976-1.538,3.605-3.513,3.637
		c-0.042,0-0.091,0-0.123,0l-1.69-0.028c-1.961-0.039-3.52-1.657-3.484-3.613C147.038,222.813,148.591,221.28,150.49,221.246"/>
	<path fill="#9A9A9A" d="M167.297,220.898l1.685-0.052c2.071-0.069,3.793,1.557,3.861,3.623c0.065,2.064-1.553,3.794-3.619,3.856
		c-0.013,0-0.056,0.004-0.073,0.004l-1.68,0.023c-2.06,0.028-3.753-1.613-3.779-3.675
		C163.664,222.645,165.268,220.969,167.297,220.898"/>
	<path fill="#9A9A9A" d="M184.089,220.189l1.69-0.095c2.148-0.118,3.984,1.527,4.097,3.676c0.121,2.146-1.526,3.982-3.674,4.102
		c-0.014,0-0.046,0-0.066,0l-1.684,0.063c-2.148,0.08-3.943-1.59-4.024-3.729C180.347,222.089,181.985,220.304,184.089,220.189"/>
	<path fill="#9A9A9A" d="M200.872,219.101l1.689-0.127c2.218-0.172,4.161,1.494,4.329,3.723c0.173,2.222-1.495,4.166-3.72,4.334
		c-0.014,0.009-0.047,0.009-0.06,0.012l-1.695,0.1c-2.219,0.128-4.127-1.566-4.25-3.791
		C197.029,221.163,198.691,219.273,200.872,219.101"/>
	<path fill="#9A9A9A" d="M217.629,217.718l1.688-0.153c2.267-0.209,4.275,1.466,4.48,3.733c0.204,2.271-1.466,4.279-3.733,4.483
		l-0.024,0.004l-1.685,0.142c-2.276,0.196-4.265-1.49-4.461-3.755C213.704,219.917,215.376,217.923,217.629,217.718"/>
	<path fill="#9A9A9A" d="M234.362,216.036l1.674-0.186c2.295-0.256,4.362,1.395,4.62,3.691c0.25,2.289-1.399,4.354-3.693,4.607
		l-0.021,0.009l-1.681,0.176c-2.293,0.237-4.34-1.417-4.588-3.714C230.437,218.338,232.082,216.293,234.362,216.036"/>
	<path fill="#9A9A9A" d="M251.061,214.027l1.67-0.218c2.314-0.305,4.433,1.329,4.747,3.642c0.295,2.318-1.336,4.442-3.647,4.743
		l-0.023,0.004l-1.676,0.205c-2.313,0.291-4.426-1.354-4.715-3.666C247.135,216.434,248.757,214.327,251.061,214.027"/>
	<path fill="#9A9A9A" d="M267.72,211.71l1.667-0.254c2.343-0.345,4.518,1.262,4.869,3.599c0.343,2.337-1.268,4.514-3.603,4.86
		l-0.023,0.005l-1.676,0.238c-2.329,0.338-4.496-1.285-4.837-3.619C263.789,214.214,265.393,212.056,267.72,211.71"/>
	<path fill="#9A9A9A" d="M284.367,209.172l1.674-0.268c2.311-0.363,4.477,1.209,4.841,3.517c0.364,2.301-1.199,4.456-3.497,4.836
		l-1.667,0.277c-2.303,0.381-4.483-1.186-4.874-3.489c-0.378-2.315,1.189-4.495,3.497-4.87L284.367,209.172z"/>
	<path fill="#9A9A9A" d="M301.206,206.709l1.685-0.225c2.29-0.3,4.384,1.316,4.689,3.605c0.295,2.281-1.305,4.375-3.585,4.684
		l-1.675,0.228c-2.291,0.316-4.404-1.286-4.717-3.575c-0.317-2.294,1.29-4.402,3.579-4.717H301.206z"/>
	<path fill="#9A9A9A" d="M318.127,204.727l1.685-0.167c2.276-0.228,4.298,1.427,4.519,3.698c0.228,2.262-1.42,4.274-3.67,4.519
		l-1.685,0.177c-2.276,0.242-4.309-1.403-4.55-3.68c-0.24-2.271,1.412-4.304,3.679-4.546H318.127z"/>
	<path fill="#9A9A9A" d="M335.128,203.318l1.675-0.096c2.241-0.13,4.152,1.575,4.289,3.804c0.118,2.208-1.54,4.107-3.747,4.279
		l-1.675,0.128c-2.241,0.167-4.189-1.509-4.366-3.745c-0.169-2.243,1.506-4.195,3.743-4.365
		C335.061,203.324,335.105,203.318,335.128,203.318"/>
	<path fill="#9A9A9A" d="M352.173,202.636l1.69-0.033c2.157-0.04,3.933,1.678,3.965,3.831c0.036,2.129-1.646,3.883-3.76,3.965
		l-1.696,0.059c-2.15,0.069-3.964-1.616-4.046-3.77c-0.07-2.167,1.615-3.975,3.782-4.052
		C352.127,202.636,352.159,202.636,352.173,202.636"/>
	<path fill="#9A9A9A" d="M369.26,202.691l1.686,0.053c2.072,0.061,3.693,1.786,3.633,3.854c-0.059,2.043-1.758,3.656-3.79,3.633
		l-1.691-0.019c-2.081-0.023-3.74-1.734-3.712-3.811c0.023-2.074,1.728-3.739,3.802-3.715
		C369.204,202.688,369.246,202.691,369.26,202.691"/>
	<path fill="#9A9A9A" d="M386.335,203.624l1.689,0.163c1.972,0.179,3.415,1.927,3.229,3.899c-0.181,1.922-1.862,3.346-3.775,3.236
		l-1.689-0.103c-1.996-0.116-3.51-1.83-3.394-3.82c0.119-1.985,1.827-3.503,3.821-3.384
		C386.249,203.614,386.303,203.619,386.335,203.624"/>
	<path fill="#9A9A9A" d="M403.347,205.718l1.671,0.271c1.794,0.291,3.008,1.971,2.727,3.766c-0.286,1.752-1.913,2.952-3.66,2.733
		l-1.68-0.211c-1.814-0.229-3.105-1.886-2.874-3.698c0.232-1.819,1.89-3.108,3.702-2.875
		C403.262,205.704,403.314,205.713,403.347,205.718"/>
	<path fill="#9A9A9A" d="M420.176,209.02l1.646,0.401c1.603,0.389,2.593,2.003,2.208,3.608c-0.386,1.571-1.941,2.547-3.508,2.222
		l-1.671-0.338c-1.622-0.336-2.679-1.932-2.346-3.57c0.343-1.627,1.942-2.68,3.569-2.348
		C420.105,209,420.151,209.011,420.176,209.02"/>
	<path fill="#9A9A9A" d="M436.687,213.721l1.604,0.542c1.409,0.482,2.162,2.015,1.676,3.424c-0.463,1.375-1.943,2.121-3.322,1.708
		l-1.625-0.489c-1.441-0.434-2.252-1.958-1.817-3.394c0.432-1.445,1.952-2.252,3.394-1.818
		C436.619,213.697,436.663,213.711,436.687,213.721"/>
	<path fill="#9A9A9A" d="M452.668,219.999l1.536,0.709c1.207,0.558,1.729,1.98,1.172,3.185c-0.542,1.175-1.923,1.704-3.108,1.209
		l-1.557-0.661c-1.243-0.518-1.817-1.943-1.304-3.179c0.523-1.234,1.943-1.816,3.185-1.294
		C452.615,219.976,452.644,219.99,452.668,219.999"/>
	<path fill="#9A9A9A" d="M467.859,227.98l1.439,0.896c0.969,0.609,1.269,1.894,0.661,2.866c-0.591,0.942-1.809,1.249-2.762,0.724
		l-1.484-0.81c-1.037-0.567-1.418-1.857-0.846-2.889c0.562-1.032,1.852-1.413,2.884-0.849
		C467.783,227.939,467.827,227.962,467.859,227.98"/>
	<path fill="#9A9A9A" d="M481.901,237.767l1.323,1.053c0.691,0.542,0.812,1.552,0.263,2.242c-0.528,0.662-1.485,0.793-2.171,0.313
		l-1.386-0.975c-0.742-0.525-0.922-1.548-0.395-2.289c0.513-0.749,1.543-0.925,2.285-0.4
		C481.846,237.729,481.874,237.748,481.901,237.767"/>
	<path fill="#9A9A9A" d="M494.778,248.902l1.232,1.168c0.443,0.418,0.468,1.124,0.042,1.573c-0.41,0.426-1.082,0.462-1.522,0.083
		l-1.295-1.087c-0.491-0.415-0.554-1.148-0.138-1.638c0.414-0.496,1.142-0.55,1.632-0.138
		C494.749,248.875,494.768,248.889,494.778,248.902"/>
	<path fill="#59A635" d="M698.495,306.986c-0.137,4.885-5.999,10.382-5.999,10.382s-5.54-5.824-5.397-10.717
		c0.14-4.886,2.759-7.08,5.904-6.982C696.156,299.767,698.637,302.099,698.495,306.986"/>
	<path fill="#59A635" d="M686.365,331.88c0.144-4.881,6.001-10.385,6.001-10.385s5.548,5.828,5.404,10.72
		c-0.142,4.872-2.764,7.066-5.916,6.974C688.717,339.104,686.225,336.761,686.365,331.88"/>
	<path fill="#59A635" d="M684.686,307.958c4.167,2.572,5.988,10.385,5.988,10.385s-7.818,1.89-11.967-0.688
		c-4.169-2.565-4.753-5.917-3.094-8.609C677.257,306.373,680.521,305.396,684.686,307.958"/>
	<path fill="#59A635" d="M700.182,330.895c-4.17-2.557-5.988-10.384-5.988-10.384s7.806-1.881,11.971,0.695
		c4.167,2.566,4.755,5.923,3.102,8.602C707.605,332.495,704.333,333.471,700.182,330.895"/>
	<path fill="#59A635" d="M678.626,320.406c4.305-2.323,11.987,0.011,11.987,0.011s-2.276,7.697-6.579,10.022
		c-4.308,2.316-7.507,1.154-8.999-1.627C673.533,326.05,674.315,322.722,678.626,320.406"/>
	<path fill="#59A635" d="M706.234,318.464c-4.3,2.314-11.985-0.019-11.985-0.019s2.273-7.699,6.583-10.018
		c4.296-2.32,7.515-1.158,9.01,1.621C711.33,312.819,710.553,316.13,706.234,318.464"/>
	<path fill="#FFFFFF" d="M696.57,310.942c-0.094,3.328-4.102,7.087-4.102,7.087s-3.771-3.981-3.677-7.313
		c0.096-3.338,1.882-4.831,4.03-4.771C694.97,306.011,696.672,307.604,696.57,310.942"/>
	<path fill="#FFFFFF" d="M688.295,327.919c0.106-3.328,4.096-7.075,4.096-7.075s3.774,3.97,3.68,7.309
		c-0.091,3.328-1.884,4.824-4.029,4.768C689.902,332.845,688.201,331.25,688.295,327.919"/>
	<path fill="#FFFFFF" d="M687.151,311.598c2.847,1.753,4.078,7.09,4.078,7.09s-5.324,1.292-8.165-0.466
		c-2.835-1.747-3.235-4.039-2.115-5.878C682.069,310.514,684.306,309.851,687.151,311.598"/>
	<path fill="#FFFFFF" d="M697.712,327.259c-2.824-1.748-4.081-7.085-4.081-7.085s5.326-1.292,8.169,0.464
		c2.837,1.75,3.237,4.045,2.114,5.867C702.79,328.338,700.567,329.017,697.712,327.259"/>
	<path fill="#FFFFFF" d="M683.018,320.091c2.925-1.581,8.173,0.018,8.173,0.018s-1.55,5.256-4.486,6.834
		c-2.938,1.58-5.125,0.79-6.141-1.105C679.54,323.941,680.07,321.681,683.018,320.091"/>
	<path fill="#FFFFFF" d="M701.849,318.771c-2.928,1.578-8.176,0-8.176,0s1.548-5.271,4.496-6.847
		c2.935-1.59,5.122-0.792,6.131,1.101C705.32,314.921,704.799,317.178,701.849,318.771"/>
	<path fill="#E284AD" d="M697.397,319.58c-0.079,2.733-2.368,4.899-5.11,4.816c-2.736-0.083-4.894-2.362-4.82-5.104
		c0.079-2.744,2.371-4.909,5.108-4.832C695.314,314.54,697.477,316.833,697.397,319.58"/>
	<path fill="#59A635" d="M230.145,305.26c-1.438-4.741-5.908-7.671-11.082-6.879c-0.628-5.188-4.647-8.722-9.607-8.824
		c-4.965-0.116-9.135,3.245-9.975,8.415c-5.13-1.031-9.735,1.708-11.366,6.387c-1.64,4.687,0.265,9.703,4.916,12.087
		c-2.55,4.575-1.374,9.791,2.575,12.804c3.946,2.995,9.299,2.743,13.005-0.947c3.562,3.838,8.894,4.331,12.973,1.506
		c4.07-2.837,5.481-7.996,3.125-12.674C229.459,314.942,231.568,310.022,230.145,305.26"/>
	<path fill="#FFFFFF" d="M221.896,307.307c-0.88-2.892-3.605-4.667-6.761-4.195c-0.369-3.158-2.831-5.314-5.856-5.392
		c-3.03-0.063-5.569,1.981-6.083,5.131c-3.138-0.616-5.931,1.053-6.931,3.906c-0.99,2.868,0.159,5.913,2.999,7.374
		c-1.551,2.78-0.841,5.969,1.571,7.802c2.411,1.84,5.665,1.671,7.936-0.57c2.162,2.345,5.413,2.633,7.904,0.912
		c2.489-1.719,3.347-4.881,1.909-7.735C221.475,313.207,222.766,310.218,221.896,307.307"/>
	<path fill="#E284AD" d="M214.16,310.618c-0.062,2.845-2.42,5.104-5.27,5.038c-2.842-0.056-5.104-2.418-5.046-5.268
		c0.06-2.849,2.417-5.114,5.265-5.041C211.971,305.391,214.221,307.763,214.16,310.618"/>
	<path fill="#D40976" d="M59.642,444.67c-1.595,1.126-3.074,1.274-4.425,0.493c-1.353-0.809-2.354-2.036-2.985-3.719
		c-0.639-1.675-0.834-3.422-0.6-5.253c0.246-1.833,1.155-3.311,2.75-4.435c1.275-0.792,2.585-1.701,3.946-2.726
		c1.348-1.061,2.662-2.204,3.942-3.478l3.585-3.348c2.708-2.704,5.337-5.653,7.894-8.842c2.54-3.197,4.93-6.415,7.168-9.679
		c2.227-3.271,4.298-6.357,6.213-9.317c1.908-2.945,3.584-5.625,5.015-8.003c9.085-15.464,16.89-31.557,23.427-48.293
		c6.531-16.727,12.987-33.304,19.357-49.72c2.236-5.569,4.266-11.188,6.102-16.841c1.822-5.666,3.938-11.206,6.332-16.616
		c1.912-3.195,4.215-5.105,6.931-5.741c2.708-0.632,5.58,0.157,8.603,2.394c1.6,1.431,2.589,3.265,2.995,5.495
		c0.391,2.232,0.508,4.542,0.354,6.932c-0.159,2.395-0.473,4.703-0.955,6.927c-0.48,2.245-0.794,4.149-0.952,5.741
		c-1.119,8.767-2.314,17.452-3.589,26.052c-1.276,8.61-2.475,17.303-3.588,26.062c-0.472,3.98-1.158,9.316-2.03,16.012
		c-0.886,6.694-1.637,13.944-2.266,21.755c6.531-3.198,12.745-6.051,18.637-8.609c5.9-2.548,11.392-4.787,16.492-6.693
		c1.595-0.634,2.993-0.688,4.184-0.111c1.2,0.556,2.033,1.3,2.514,2.259s0.552,2.083,0.239,3.338
		c-0.32,1.292-1.196,2.314-2.633,3.114c-7.012,4.156-13.819,8.367-20.432,12.674c-6.618,4.284-13.269,8.6-19.959,12.905
		c0,7.811,0.512,15.061,1.555,21.747c1.034,6.703,3.065,11.799,6.094,15.286c1.277,1.607,2.948,2.724,5.021,3.365
		c2.062,0.632,3.981,1.432,5.732,2.39c1.276,0.947,2.071,1.951,2.39,2.983c0.325,1.041,0.325,2.036,0,2.983
		c-0.319,0.959-0.995,1.712-2.027,2.28c-1.044,0.566-2.275,0.828-3.707,0.828c-2.387-1.274-4.867-2.307-7.409-3.108
		c-2.552-0.798-4.937-1.979-7.175-3.567c-2.063-1.452-3.862-3.637-5.374-6.575c-1.514-2.956-2.746-6.145-3.709-9.567
		c-0.947-3.421-1.751-6.973-2.388-10.637c-0.639-3.671-1.113-7.095-1.435-10.273c-3.026,1.915-6.015,3.812-8.962,5.727
		c-2.953,1.908-5.941,3.748-8.963,5.496c-9.884,5.904-20.276,12.366-31.195,19.365C79.441,431.134,69.206,437.987,59.642,444.67
		 M141.146,320.621c-5.251,12.441-10.752,24.742-16.49,36.932c-5.737,12.188-12.351,23.857-19.837,35.023
		c10.667-6.703,21.831-12.988,33.465-18.893c-0.328-9.085-0.166-17.963,0.471-26.639
		C139.395,338.361,140.199,329.555,141.146,320.621"/>
	<path fill="#D40976" d="M187.759,354.092c2.552-3.672,4.738-5.224,6.572-4.658c1.832,0.558,2.75,2.427,2.75,5.617
		c-1.273,7.159-2.471,14.021-3.584,20.547c-1.119,6.536-1.956,12.273-2.514,17.21c-0.557,4.937-0.714,8.965-0.477,12.068
		c0.239,3.106,1.234,4.752,2.99,4.898v0.243c2.066,0.801,4.618,1.005,7.648,0.597c3.024-0.402,6.172-1.266,9.438-2.632
		c3.271-1.349,6.487-3.014,9.682-5.011c3.184-2.001,6.054-4.26,8.607-6.824c1.432-0.475,2.707-0.553,3.817-0.232
		c1.115,0.323,1.997,0.881,2.638,1.674c0.628,0.798,0.957,1.803,0.957,2.991c0,1.192-0.486,2.354-1.438,3.46
		c-11.315,9.092-20.917,15.228-28.805,18.398c-7.883,3.189-14.257,4.306-19.118,3.358c-4.865-0.949-8.289-3.544-10.282-7.765
		c-1.991-4.22-2.827-9.121-2.509-14.718c0.796-10.349,2.471-19.312,5.024-26.871C181.7,368.868,184.566,361.419,187.759,354.092"/>
	<path fill="#D40976" d="M239.629,358.147c1.912-3.82,3.46-6.771,4.655-8.842c1.199-2.064,2.194-3.457,2.989-4.185
		c0.8-0.715,1.438-0.948,1.917-0.715c0.477,0.242,0.868,0.677,1.195,1.31c1.104,1.914,1.705,4.193,1.791,6.824
		c0.076,2.624-0.124,5.541-0.6,8.713c-0.475,3.197-1.151,6.593-2.028,10.172c-0.88,3.58-1.798,7.207-2.751,10.858
		c1.913-3.651,3.784-7.354,5.618-11.102c1.831-3.746,3.78-7.298,5.86-10.636c1.109-1.747,2.421-4.074,3.941-6.945
		c1.509-2.854,3.265-5.607,5.256-8.237c1.989-2.631,4.183-4.816,6.569-6.575c2.393-1.757,5.027-2.379,7.896-1.904
		c1.749,0.474,3.105,1.021,4.062,1.664c0.952,0.642,1.91,1.749,2.87,3.347c1.585,3.357,2.306,6.899,2.149,10.646
		c-0.16,3.747-0.638,7.522-1.44,11.344c-0.799,3.821-1.709,7.661-2.745,11.475c-1.035,3.827-1.634,7.501-1.791,10.999l14.818-23.903
		c1.114-1.908,2.466-3.256,4.065-4.074c1.585-0.79,3.185-1.136,4.774-1.069c1.595,0.073,3.034,0.727,4.309,1.914
		c1.276,1.201,2.228,2.911,2.867,5.143c0,2.875-0.239,6.379-0.716,10.519c-0.474,4.145-0.804,8.281-0.96,12.418
		c-0.158,4.157,0.038,8.146,0.6,11.957c0.555,3.822,1.795,6.779,3.704,8.854c3.828-0.476,7.612-2.317,11.354-5.506
		c3.74-3.18,7.206-6.972,10.395-11.352c3.192-4.389,6.014-8.925,8.49-13.621c2.47-4.688,4.337-8.731,5.623-12.076
		c1.422-2.551,3.298-3.461,5.611-2.754c2.31,0.716,3.465,2.5,3.465,5.382c-3.507,10.684-8.004,20-13.504,27.969
		c-5.497,7.968-12.548,15.703-21.15,23.188c-1.596,1.283-3.666,2.388-6.214,3.337c-2.556,0.966-5.582,0.801-9.093-0.475
		c-2.546-0.956-4.658-2.416-6.329-4.425c-1.671-1.979-3.029-4.259-4.065-6.798c-1.039-2.557-1.83-5.188-2.39-7.901
		c-0.558-2.704-0.925-5.18-1.076-7.409c-1.271,2.229-2.666,4.425-4.179,6.582c-1.516,2.138-3.192,4.09-5.019,5.858
		c-1.838,1.748-3.866,3.143-6.099,4.175c-2.236,1.04-4.702,1.561-7.406,1.561c-2.237-0.326-4.028-0.967-5.379-1.925
		c-1.361-0.94-2.595-2.463-3.709-4.528c-1.271-4.461-1.903-8.879-1.903-13.268s0.314-8.729,0.958-13.035
		c-3.996,7.336-8.135,14.783-12.441,22.353c-4.297,7.577-9.316,14.14-15.053,19.72c-2.711,1.749-5.138,2.23-7.296,1.44
		c-2.147-0.809-4.022-2.555-5.608-5.262c-0.805-4.146-0.805-8.879,0-14.227c0.786-5.337,1.985-10.785,3.58-16.374
		c1.59-5.577,3.306-11.033,5.142-16.372C237.04,367.034,238.511,362.293,239.629,358.147 M269.742,365.559
		c0-0.318-0.038-0.271-0.119,0.109c-0.081,0.417-0.196,1.014-0.355,1.803L269.742,365.559z"/>
	<path fill="#D40976" d="M393.078,358.621c-1.908,4.146-4.028,8.303-6.332,12.44c-2.308,4.147-4.865,7.922-7.649,11.353
		c-2.785,3.422-5.855,6.453-9.198,9.074c-3.35,2.632-7.173,4.509-11.476,5.626c0,2.548,0.195,5.179,0.595,7.884
		c0.399,2.714,1.155,4.992,2.271,6.824c1.118,1.832,2.713,2.977,4.779,3.451c2.072,0.475,4.708-0.226,7.897-2.141
		c1.111-0.631,2.819-1.719,5.132-3.225c2.313-1.526,4.778-3.312,7.407-5.374c2.636-2.083,5.098-4.352,7.414-6.824
		c2.308-2.465,10.353-10.869,11.634-13.26c0.637-1.432,1.556-2.157,2.752-2.157c1.191,0,2.264,0.483,3.226,1.435
		c0.954,0.965-4.669,8.132-4.346,9.556c0.313,1.441,0,2.797-0.956,4.063c-0.954,1.915-2.666,4.232-5.137,6.928
		c-2.476,2.713-5.061,5.382-7.769,8.016c-2.715,2.629-5.381,5.02-8.011,7.176c-2.62,2.148-4.657,3.544-6.094,4.183
		c-0.324,0.159-0.952,0.475-1.915,0.959c-0.952,0.466-2.026,1.022-3.227,1.657c-1.195,0.659-2.428,1.198-3.699,1.682
		c-1.276,0.475-2.395,0.716-3.348,0.716c-3.512,0-6.697-0.68-9.558-2.026c-2.875-1.359-5.345-3.188-7.412-5.495
		c-2.071-2.306-3.741-4.993-5.016-8.007c-1.282-3.029-2.076-6.21-2.395-9.576c-0.158-1.105-0.277-2.175-0.363-3.207
		c-0.077-1.043-0.115-2.112-0.115-3.235c-1.119-0.792-1.676-1.869-1.676-3.227c0-1.348,0.481-2.512,1.433-3.46
		c0-2.4,0.121-4.785,0.358-7.177c0.242-2.399,0.763-4.862,1.558-7.41c1.113-4.147,2.744-9.158,4.897-15.063
		c2.157-5.893,4.902-11.472,8.244-16.726c3.347-5.264,7.294-9.643,11.83-13.147c4.55-3.506,9.688-4.937,15.424-4.306
		c3.667,0.316,6.369,1.768,8.127,4.306c1.745,2.548,2.87,5.505,3.347,8.852c0.479,3.338,0.437,6.768-0.116,10.266
		C395.03,353.526,394.191,356.398,393.078,358.621 M378.974,346.44c-1.903,1.592-3.82,3.813-5.732,6.687
		c-1.909,2.87-3.704,6.071-5.375,9.568c-1.681,3.495-3.152,7.139-4.424,10.887c-1.28,3.737-2.312,7.207-3.112,10.385
		c1.277-1.271,2.632-2.865,4.066-4.77c1.432-1.937,3.026-4.391,4.784-7.42c0.794-1.283,1.748-2.947,2.866-5.021
		c1.113-2.063,2.19-4.302,3.229-6.685c1.037-2.399,1.908-4.787,2.626-7.187C378.62,350.495,378.974,348.355,378.974,346.44"/>
	<path fill="#D40976" d="M456.58,358.621c-1.909,4.146-4.026,8.303-6.329,12.44c-2.315,4.147-4.868,7.922-7.658,11.353
		c-2.779,3.422-5.85,6.453-9.195,9.074c-3.352,2.632-7.176,4.509-11.474,5.626c0,2.548,0.196,5.179,0.597,7.884
		c0.398,2.714,1.157,4.992,2.27,6.824c1.108,1.832,2.708,2.977,4.779,3.451c2.071,0.475,4.702-0.226,7.898-2.141
		c1.104-0.631,2.816-1.719,5.125-3.225c2.315-1.526,4.781-3.312,7.414-5.374c2.638-2.083,5.097-4.352,7.412-6.824
		c2.309-2.465,4.102-4.901,5.379-7.282c0.631-1.441,1.552-2.166,2.751-2.166c1.19,0,2.267,0.482,3.222,1.432
		c0.957,0.968,1.59,2.166,1.915,3.59c0.319,1.441,0,2.797-0.958,4.063c-0.957,1.915-2.675,4.232-5.142,6.928
		c-2.47,2.713-5.06,5.382-7.763,8.016c-2.708,2.629-5.378,5.02-8.012,7.176c-2.626,2.148-4.656,3.544-6.093,4.183
		c-0.32,0.159-0.956,0.475-1.91,0.959c-0.955,0.466-2.037,1.022-3.227,1.657c-1.199,0.659-2.438,1.198-3.709,1.682
		c-1.273,0.475-2.39,0.716-3.34,0.716c-3.51,0-6.695-0.68-9.565-2.026c-2.872-1.359-5.342-3.188-7.411-5.495
		c-2.071-2.306-3.748-4.993-5.019-8.007c-1.281-3.029-2.075-6.21-2.39-9.576c-0.157-1.105-0.276-2.175-0.363-3.207
		c-0.081-1.043-0.113-2.112-0.113-3.235c-1.119-0.792-1.676-1.869-1.676-3.227c0-1.348,0.481-2.512,1.439-3.46
		c0-2.4,0.113-4.785,0.35-7.177c0.244-2.399,0.759-4.862,1.558-7.41c1.114-4.147,2.749-9.158,4.898-15.063
		c2.153-5.893,4.905-11.472,8.246-16.726c3.351-5.264,7.289-9.643,11.834-13.147c4.544-3.506,9.677-4.937,15.413-4.306
		c3.667,0.316,6.382,1.768,8.132,4.306c1.748,2.548,2.865,5.505,3.346,8.852c0.481,3.338,0.433,6.768-0.123,10.266
		C458.532,353.526,457.696,356.398,456.58,358.621 M442.474,346.44c-1.902,1.592-3.815,3.813-5.73,6.687
		c-1.909,2.87-3.704,6.071-5.378,9.568c-1.677,3.495-3.148,7.139-4.422,10.887c-1.276,3.737-2.315,7.207-3.105,10.385
		c1.271-1.271,2.629-2.865,4.061-4.77c1.434-1.937,3.024-4.391,4.779-7.42c0.8-1.283,1.753-2.947,2.871-5.021
		c1.115-2.063,2.185-4.302,3.223-6.685c1.042-2.399,1.913-4.787,2.632-7.187C442.125,350.495,442.474,348.355,442.474,346.44"/>
	<path fill="#D40976" d="M536.495,349.555c0.787,1.424,1.066,2.732,0.832,3.935c-0.237,1.188-0.832,2.156-1.808,2.862
		c-0.945,0.716-2.11,1.126-3.454,1.2c-1.349,0.084-2.598-0.445-3.706-1.556c-2.705-2.386-4.625-5.102-5.731-8.124
		c-1.125-3.022-1.678-6.332-1.678-9.92c0-3.58,0.434-7.483,1.31-11.707c0.878-4.221,1.874-8.643,2.995-13.267
		c2.063-8.289,4.824-16.652,8.25-25.101c3.424-8.448,7.482-16.098,12.182-22.95c4.705-6.843,9.846-12.343,15.416-16.489
		c5.572-4.146,11.556-5.976,17.927-5.498c3.835,0.163,6.534,2.071,8.125,5.734c1.598,3.671,2.524,8.248,2.753,13.741
		c0.24,5.506-0.076,11.558-0.952,18.176c-0.882,6.612-1.907,12.943-3.111,18.993c-1.188,6.055-2.348,11.48-3.46,16.255
		c-1.12,4.779-1.904,8.127-2.399,10.041c0.962-3.021,3.119-6.767,6.469-11.236c3.343-4.458,7.32-9.005,11.937-13.624
		c4.627-4.617,9.568-8.96,14.831-13.025c5.249-4.063,10.227-7.091,14.931-9.086c4.701-1.983,8.76-2.583,12.189-1.789
		c3.427,0.795,5.696,3.589,6.811,8.368c1.757,8.123,2.359,16.219,1.795,24.262c-0.563,8.044-1.677,16.17-3.34,24.369
		c-1.672,8.211-3.476,16.542-5.381,24.983c-1.913,8.462-3.278,16.97-4.073,25.579c-0.94,8.776-1.272,15.415-0.94,19.961
		c0.314,4.536,1.502,7.615,3.576,9.205c2.067,1.591,5.146,1.898,9.196,0.949c4.073-0.949,9.29-2.539,15.663-4.78
		c1.594-0.631,2.989-0.726,4.184-0.243c1.197,0.484,2.03,1.199,2.519,2.158c0.474,0.949,0.503,2.074,0.111,3.34
		c-0.404,1.28-1.397,2.323-2.99,3.122c-10.989,4.286-19.52,6.36-25.567,6.211c-6.065-0.166-10.44-2.045-13.155-5.624
		c-2.71-3.58-4.263-8.442-4.664-14.58c-0.398-6.127-0.441-13.026-0.116-20.675c0.158-3.51,0.838-8.519,2.03-15.056
		c1.196-6.528,2.396-13.499,3.587-20.92c1.194-7.419,2.151-14.699,2.873-21.869c0.709-7.177,0.749-13.063,0.12-17.684
		c-0.641-4.63-2.193-7.414-4.659-8.367c-2.473-0.958-6.265,0.953-11.36,5.734c-5.105,4.622-9.959,10.118-14.58,16.496
		c-4.62,6.368-8.964,13.146-13.023,20.315c-4.061,7.178-7.813,14.383-11.236,21.627c-3.424,7.252-6.423,13.993-8.961,20.203
		c-3.198,7.484-6.062,14.979-8.609,22.466c-2.552,7.491-5.104,14.977-7.652,22.461l-1.186,1.915
		c-1.278,2.233-2.876,3.785-4.797,4.658c-1.896,0.884-3.78,1.126-5.606,0.727c-1.828-0.41-3.458-1.358-4.899-2.874
		c-1.433-1.515-2.237-3.617-2.39-6.331c1.752-12.581,4.19-23.942,7.29-34.059c3.109-10.124,6.411-19.99,9.919-29.649
		c3.509-9.622,6.896-19.554,10.158-29.743c3.265-10.201,6.013-21.673,8.247-34.425c0.639-3.345,1.438-7.415,2.396-12.194
		c0.952-4.778,1.716-9.354,2.264-13.736c0.558-4.391,0.646-8.126,0.241-11.236c-0.399-3.112-1.63-4.584-3.704-4.427
		c-1.914-0.158-4.375,1.238-7.405,4.184c-3.03,2.946-6.143,6.896-9.321,11.831c-3.194,4.942-6.266,10.596-9.204,16.975
		c-2.952,6.378-5.379,12.82-7.299,19.356c-0.628,2.239-1.473,5.179-2.501,8.842c-1.048,3.673-1.789,7.457-2.279,11.354
		c-0.473,3.913-0.473,7.604,0,11.127C532.908,344.926,534.255,347.629,536.495,349.555"/>
	<path fill="#D40976" d="M675.6,354.092c2.546-3.672,4.74-5.224,6.578-4.658c1.825,0.558,2.742,2.427,2.742,5.617
		c-1.274,7.159-2.469,14.021-3.59,20.547c-1.119,6.536-1.954,12.273-2.504,17.21c-0.56,4.937-0.713,8.965-0.481,12.068
		c0.243,3.106,1.235,4.752,2.985,4.898v0.243c2.079,0.801,4.621,1.005,7.661,0.597c3.018-0.402,6.174-1.266,9.434-2.632
		c3.269-1.349,6.492-3.014,9.678-5.011c3.189-2.001,6.068-4.26,8.605-6.824c1.435-0.475,2.712-0.553,3.835-0.232
		c1.104,0.323,1.981,0.881,2.623,1.674c0.628,0.798,0.952,1.803,0.952,2.991c0,1.192-0.464,2.354-1.428,3.46
		c-11.318,9.092-20.918,15.228-28.803,18.398c-7.89,3.189-14.269,4.306-19.131,3.358c-4.854-0.949-8.284-3.544-10.273-7.765
		c-1.989-4.22-2.836-9.121-2.516-14.718c0.795-10.349,2.473-19.312,5.026-26.871C669.546,368.868,672.41,361.419,675.6,354.092"/>
	<path fill="#D40976" d="M767.386,357.439c0,3.033-1.199,4.742-3.59,5.133c-2.383,0.402-4.299-0.678-5.73-3.227l-0.968-13.861
		h-3.343c-3.184,2.072-6.368,5.298-9.557,9.68c-3.194,4.387-5.98,9.128-8.364,14.224c-2.385,5.095-4.181,10.272-5.374,15.537
		c-1.198,5.252-1.314,9.8-0.363,13.63c0.32,1.42,1.117,3.143,2.395,5.132c1.278,1.991,2.711,3.152,4.299,3.46
		c2.396-0.308,4.903-1.228,7.521-2.744c2.642-1.515,5.302-3.227,8.021-5.142c2.707-1.915,5.326-3.857,7.874-5.838
		c2.551-1.999,18.615-16.458,20.516-17.73c1.442-0.483,0.602,1.077,1.638,1.395c1.04,0.324,1.87,0.874,2.511,1.673
		c0.638,0.809,0.953,1.804,0.953,2.993c0,1.193-0.471,2.345-1.418,3.469c-2.251,2.063-16.347,15.603-18.809,18.225
		c-2.479,2.63-5.021,5.224-7.653,7.771c-2.637,2.549-5.378,4.855-8.251,6.929c-2.863,2.072-5.816,3.587-8.832,4.536
		c-3.205,0.966-6.305,0.996-9.341,0.132c-3.022-0.874-5.771-2.278-8.238-4.184c-2.468-1.917-4.624-4.233-6.447-6.947
		c-1.834-2.704-3.231-5.484-4.189-8.367c-1.272-4.288-1.468-9.744-0.595-16.364c0.88-6.601,2.554-13.268,5.021-19.954
		c2.46-6.692,5.698-12.866,9.683-18.53c3.977-5.652,8.448-9.762,13.38-12.31c4.147-2.073,8.08-3.141,11.832-3.225
		c3.747-0.076,6.888,0.761,9.447,2.528c2.537,1.738,4.424,4.48,5.612,8.219C768.223,347.434,768.344,352.008,767.386,357.439"/>
	<path fill="#D40976" d="M806.265,353.859c0,0.15,0.041,0.318,0.121,0.455c0.078,0.177,0.125,0.337,0.125,0.495
		c8.601-3.989,17.559-7.291,26.877-9.931c9.328-2.611,18.531-5.059,27.606-7.28c2.873,0,4.663,1.165,5.388,3.46
		c0.716,2.314-0.194,4.193-2.756,5.614c-6.049,2.558-12.156,5.105-18.279,7.642c-6.131,2.56-12.236,5.357-18.294,8.381
		c2.075,3.188,2.952,6.776,2.646,10.757c-0.335,3.978-1.05,7.811-2.162,11.473c-0.953,3.03-2.314,6.248-4.061,9.669
		c-1.752,3.431-3.828,6.686-6.223,9.809c-2.379,3.106-5.058,5.888-7.995,8.369c-2.952,2.464-5.938,4.249-8.967,5.374
		c-1.911,0.8-3.978,1.199-6.213,1.199c-2.24,0-4.461,0.158-6.702,0.474c-1.746-0.315-3.102-0.716-4.05-1.199
		c-0.957-0.474-2.082-1.35-3.354-2.621c-0.799-1.443-1.745-2.837-2.865-4.176c-1.121-1.356-1.922-2.836-2.39-4.426
		c-1.278-4.146-1.4-8.964-0.359-14.469c1.028-5.492,2.711-11.045,5.022-16.604c2.296-5.578,5.015-10.804,8.116-15.667
		c3.099-4.843,6.095-8.721,8.966-11.585c3.195-2.882,5.974-2.48,8.368,1.19L806.265,353.859z M803.875,372.01
		c-3.338-1.599-5.259-3.832-5.736-6.697c-2.706,5.589-4.626,11.56-5.743,17.938c-1.108,6.369-1.579,12.598-1.423,18.641
		c2.069-0.313,4.096-1.311,6.096-2.982c1.98-1.666,3.779-3.626,5.368-5.85c1.596-2.239,3.023-4.546,4.306-6.935
		c1.273-2.397,2.305-4.465,3.111-6.23c1.108-2.392,1.752-4.536,1.909-6.442v-0.474c-1.278-0.318-2.616-0.447-4.066-0.373
		C806.265,372.698,804.986,372.485,803.875,372.01"/>
	<path fill="#D40976" d="M913.582,281.906c-1.422,6.852-3.7,14.975-6.798,24.377c-3.113,9.401-6.785,18.874-10.997,28.442
		c-4.231,9.559-8.931,18.531-14.111,26.889c-5.177,8.368-10.561,14.942-16.136,19.722c0.164,2.547,0.327,5.105,0.484,7.65
		c0.159,2.55,0.596,5.023,1.315,7.412c0.707,2.388,1.702,4.573,2.985,6.563c1.271,2.008,3.018,3.712,5.253,5.152
		c8.763-1.769,16.659-4.984,23.672-9.682c7.011-4.703,13.307-10.569,18.884-17.581c1.108-0.957,2.26-1.423,3.46-1.423
		c1.198,0,2.188,0.316,2.982,0.958c0.805,0.622,1.357,1.47,1.679,2.492c0.316,1.05,0.238,2.278-0.231,3.721
		c-2.721,3.819-6.067,7.846-10.047,12.067c-3.983,4.221-8.279,8.052-12.909,11.464c-4.621,3.441-9.437,6.268-14.458,8.499
		c-5.021,2.222-9.801,3.226-14.342,2.983c-4.546-0.243-8.728-1.989-12.548-5.263c-3.819-3.264-6.937-8.639-9.331-16.133
		c-1.757-5.577-2.815-11.788-3.206-18.649c-0.404-6.834-0.535-13.139-0.369-18.873c0.156-5.256,0.676-11.363,1.555-18.289
		c0.879-6.927,2.109-14.125,3.704-21.627c1.58-7.495,3.622-15.063,6.105-22.705c2.454-7.652,5.362-14.9,8.718-21.757
		c3.34-6.849,7.12-12.943,11.347-18.288c4.215-5.334,8.956-9.521,14.229-12.549c3.819-2.385,7.564-2.864,11.232-1.428
		c3.341,0.953,5.771,2.905,7.283,5.851c1.509,2.952,2.384,6.255,2.632,9.92c0.241,3.662,0.075,7.33-0.474,10.989
		C914.577,276.485,914.063,279.517,913.582,281.906 M879.883,301.5c-4.626,10.517-8.122,21.203-10.515,32.036
		c-2.39,10.841-3.739,21.914-4.064,33.229c2.711-3.831,5.064-7.931,7.059-12.312c1.983-4.396,3.858-8.739,5.616-13.035
		c1.904-4.461,4.053-9.884,6.442-16.263c2.389-6.358,4.666-12.978,6.815-19.829c2.152-6.849,3.946-13.581,5.384-20.205
		c1.432-6.602,2.067-12.543,1.904-17.795c-0.795,0.947-1.594,1.988-2.394,3.095c-0.8,1.12-1.585,2.237-2.375,3.355
		c-3.036,4.139-5.589,8.603-7.652,13.386C884.026,291.942,881.956,296.72,879.883,301.5"/>
	<path fill="#D40976" d="M968.565,358.621c-1.916,4.146-4.026,8.303-6.339,12.44c-2.313,4.147-4.867,7.922-7.645,11.353
		c-2.795,3.422-5.857,6.453-9.205,9.074c-3.339,2.632-7.163,4.509-11.475,5.626c0,2.548,0.195,5.179,0.602,7.884
		c0.39,2.714,1.151,4.992,2.272,6.824c1.105,1.832,2.71,2.977,4.777,3.451c2.075,0.475,4.696-0.226,7.901-2.141
		c1.107-0.631,2.809-1.719,5.127-3.225c2.3-1.526,4.778-3.312,7.399-5.374c2.637-2.083,5.104-4.352,7.425-6.824
		c2.3-2.465,4.096-4.901,5.37-7.282c0.64-1.441,1.557-2.166,2.756-2.166c1.195,0,2.272,0.482,3.227,1.432
		c0.958,0.968,1.586,2.166,1.917,3.59c0.305,1.441,0,2.797-0.959,4.063c-0.958,1.915-2.674,4.232-5.151,6.928
		c-2.464,2.713-5.059,5.382-7.763,8.016c-2.712,2.629-5.375,5.02-8.013,7.176c-2.626,2.148-4.65,3.544-6.094,4.183
		c-0.31,0.159-0.952,0.475-1.912,0.959c-0.954,0.466-2.02,1.022-3.217,1.657c-1.192,0.659-2.438,1.198-3.717,1.682
		c-1.269,0.475-2.382,0.716-3.344,0.716c-3.513,0-6.684-0.68-9.552-2.026c-2.875-1.359-5.348-3.188-7.415-5.495
		c-2.074-2.306-3.754-4.993-5.012-8.007c-1.283-3.029-2.083-6.21-2.395-9.576c-0.162-1.105-0.27-2.175-0.357-3.207
		c-0.084-1.043-0.118-2.112-0.118-3.235c-1.118-0.792-1.682-1.869-1.682-3.227c0-1.348,0.489-2.512,1.432-3.46
		c0-2.4,0.126-4.785,0.368-7.177c0.227-2.399,0.757-4.862,1.543-7.41c1.121-4.147,2.758-9.158,4.899-15.063
		c2.157-5.893,4.925-11.472,8.251-16.726c3.354-5.264,7.297-9.643,11.829-13.147c4.545-3.506,9.677-4.937,15.425-4.306
		c3.656,0.316,6.367,1.768,8.13,4.306c1.753,2.548,2.868,5.505,3.344,8.852c0.474,3.338,0.436,6.768-0.129,10.266
		C970.511,353.526,969.671,356.398,968.565,358.621 M954.46,346.44c-1.901,1.592-3.825,3.813-5.735,6.687
		c-1.912,2.87-3.696,6.071-5.37,9.568c-1.688,3.495-3.156,7.139-4.421,10.887c-1.29,3.737-2.316,7.207-3.11,10.385
		c1.27-1.271,2.626-2.865,4.054-4.77c1.44-1.937,3.026-4.391,4.787-7.42c0.796-1.283,1.749-2.947,2.865-5.021
		c1.12-2.063,2.188-4.302,3.235-6.685c1.022-2.399,1.901-4.787,2.617-7.187C954.112,350.495,954.46,348.355,954.46,346.44"/>
</g>
</svg>
